<svg xmlns="http://www.w3.org/2000/svg" width="101.83" height="17.47" viewBox="0 0 101.83 17.47"><defs><style>.cls-1{fill:#c0b7af}</style></defs><g id="Layer_2" data-name="Layer 2"><g id="Layer_1-2" data-name="Layer 1"><path class="cls-1" d="M.19 17.14A.21.21 0 0 1 0 17l.1-8.36L0 .53A.2.2 0 0 1 .19.34h5.64c4.83 0 8.69 2.73 8.69 8.47s-4 8.33-8.64 8.33zM3 14.83h3.07c2.84 0 5.43-1.75 5.43-6S9.05 2.64 6 2.64H3s-.07 3.72-.07 5.93.07 6.24.07 6.26zM16.34 17.14a.21.21 0 0 1-.19-.19l.1-8.33-.1-8.09a.2.2 0 0 1 .19-.19h10.78a.2.2 0 0 1 .19.19v1.92a.2.2 0 0 1-.19.19h-8l-.07 4.44h7.41a.21.21 0 0 1 .2.19v1.92a.21.21 0 0 1-.2.19h-7.4l.07 5.45h8.18a.22.22 0 0 1 .2.2V17a.21.21 0 0 1-.2.19zM40.68 17.47c-4.34 0-7.13-1.92-7.3-5.85a.22.22 0 0 1 .2-.2h2.68a.25.25 0 0 1 .22.2c.19 2.16 1.25 3.53 4.27 3.53 2.33 0 3.82-.75 3.82-2.62 0-4.15-10.85-1-10.85-7.56 0-3.1 2.45-5 6.46-5S46.61 1.58 47 5.11c0 .1-.07.19-.17.19h-2.64a.22.22 0 0 1-.19-.19c-.19-1.8-1.49-2.76-3.89-2.76-2 0-3.46.72-3.46 2.33 0 3.91 10.88.84 10.88 7.44-.03 3.51-2.74 5.35-6.85 5.35zM52.66 17.14a.21.21 0 0 1-.2-.19l.12-8.19-.07-6.12h-4.68a.21.21 0 0 1-.19-.19V.53a.2.2 0 0 1 .19-.19h12.36a.2.2 0 0 1 .19.19v1.92a.2.2 0 0 1-.19.19h-4.68l-.09 6.12.12 8.24a.21.21 0 0 1-.2.19zM71.54 17.14a.28.28 0 0 1-.26-.19l-1.46-4.42h-6.65L61.73 17a.24.24 0 0 1-.24.19H58.9a.13.13 0 0 1-.12-.19L64.56.53a.29.29 0 0 1 .26-.19h3.53a.29.29 0 0 1 .27.19L74.3 17a.13.13 0 0 1-.11.19zM69 10.08L66.46 2.4 64 10.08zM87.91 17.14a.28.28 0 0 1-.26-.19l-1.47-4.42h-6.64L78.1 17a.24.24 0 0 1-.24.19h-2.6a.14.14 0 0 1-.12-.19L80.93.53a.28.28 0 0 1 .26-.19h3.53a.27.27 0 0 1 .28.19L90.67 17a.13.13 0 0 1-.12.19zm-2.54-7.06L82.82 2.4l-2.49 7.68zM94.1 17.14a.21.21 0 0 1-.19-.19L94 8.76V2.64h-4.72a.2.2 0 0 1-.19-.19V.53a.2.2 0 0 1 .19-.19h12.36a.2.2 0 0 1 .19.19v1.92a.2.2 0 0 1-.19.19H97l-.1 6.12L97 17a.2.2 0 0 1-.19.19z"/></g></g></svg>